<?xml version="1.0" encoding="UTF-8" standalone="no"?>
<svg
   version="1.1"
   width="29.7002cm"
   height="21.0007cm"
   viewBox="0 0 116929 82679 "
   id="svg7918"
   sodipodi:docname="edges.svg"
   inkscape:version="1.1.2 (0a00cf5339, 2022-02-04)"
   xmlns:inkscape="http://www.inkscape.org/namespaces/inkscape"
   xmlns:sodipodi="http://sodipodi.sourceforge.net/DTD/sodipodi-0.dtd"
   xmlns="http://www.w3.org/2000/svg"
   xmlns:svg="http://www.w3.org/2000/svg"
   xmlns:rdf="http://www.w3.org/1999/02/22-rdf-syntax-ns#"
   xmlns:cc="http://creativecommons.org/ns#"
   xmlns:dc="http://purl.org/dc/elements/1.1/">
  <defs
     id="defs7922" />
  <sodipodi:namedview
     id="namedview7920"
     pagecolor="#ffffff"
     bordercolor="#666666"
     borderopacity="1.0"
     inkscape:pageshadow="2"
     inkscape:pageopacity="0.0"
     inkscape:pagecheckerboard="0"
     inkscape:document-units="cm"
     showgrid="false"
     inkscape:zoom="0.83779682"
     inkscape:cx="241.10858"
     inkscape:cy="466.10346"
     inkscape:window-width="1866"
     inkscape:window-height="1016"
     inkscape:window-x="54"
     inkscape:window-y="27"
     inkscape:window-maximized="1"
     inkscape:current-layer="svg7918" />
  <title
     id="title2">SVG Picture created as ejmca.svg date 2017/03/30 17:08:55 </title>
  <desc
     id="desc4">Picture generated by Eeschema-SVG </desc>
  <metadata
     id="metadata8739">
    <rdf:RDF>
      <cc:Work
         rdf:about="">
        <dc:title>SVG Picture created as ejmca.svg date 2017/03/30 17:08:55 </dc:title>
      </cc:Work>
    </rdf:RDF>
  </metadata>
  <path
     id="rect1014"
     style="opacity:0.88844;fill:none;fill-rule:evenodd;stroke:#000000;stroke-width:90.9919;stop-color:#000000"
     d="m 29575.838,7583.6058 c -155.433,-155.4336 -528.197,-111.949 -528.197,-111.949 H 11327.137 c -712.498,0 -1286.097,573.5996 -1286.097,1286.0977 V 23547.879 c 0,712.498 573.599,1286.098 1286.097,1286.098 h 24950.298 c 712.498,0 1281.244,-573.616 1286.097,-1286.098 l 55.057,-8083.946 c 0,0 44.012,-444.18 -138.931,-630.005 -177.106,-179.897 -613.053,-158.956 -613.053,-158.956 l -2392.301,-16.775 c -159.374,-1.117 0,0 245.237,-414.713 1374.421,-2033.967 2333.555,-2577.327 3594.46,-4758.8327 365.065,-1730.9 -714.274,-2510.6558 -1465.826,-2516.2727 -1490.648,-11.1407 -1952.782,865.3366 -2629.54,1693.81 -641.621,-1027.3656 -1630.366,-2197.1528 -2898.076,-1610.9931 -1291.57,597.1923 -1223.599,2201.2094 -814.367,2976.8095 377.246,714.981 -319.76,1254.315 -781.096,690.086 -179.232,-219.207 0,-2626.3305 0,-2626.3305 0,0 -3.098,-361.9949 -149.258,-508.1547 z"
     sodipodi:nodetypes="scsssssscscsccscssscs" />
  <g
     style="fill:none;stroke:#000000"
     id="g1245"
     transform="matrix(437.89227,0,0,437.89227,-8457.2878,-11759.575)">
    <g
       id="g1236"
       style="fill:none;stroke:#000000" />
  </g>
</svg>
